<?xml version="1.0" encoding="UTF-8" standalone="no"?>
<!DOCTYPE svg PUBLIC "-//W3C//DTD SVG 1.1//EN"
 "http://www.w3.org/Graphics/SVG/1.1/DTD/svg11.dtd">
<!-- Generated by graphviz version 2.43.0 (0)
 -->
<!-- Title: architecture Pages: 1 -->
<svg width="314pt" height="320pt"
 viewBox="0.00 0.00 313.98 320.00" xmlns="http://www.w3.org/2000/svg" xmlns:xlink="http://www.w3.org/1999/xlink">
<g id="graph0" class="graph" transform="scale(1 1) rotate(0) translate(4 316)">
<title>architecture</title>
<polygon fill="white" stroke="transparent" points="-4,4 -4,-316 309.98,-316 309.98,4 -4,4"/>
<!-- core -->
<g id="node1" class="node">
<title>core</title>
<ellipse fill="none" stroke="black" cx="30.55" cy="-156" rx="30.59" ry="18"/>
<text text-anchor="middle" x="30.55" y="-152.3" font-family="Times,serif" font-size="14.00">core</text>
</g>
<!-- window -->
<g id="node2" class="node">
<title>window</title>
<ellipse fill="none" stroke="black" cx="148.44" cy="-294" rx="46.29" ry="18"/>
<text text-anchor="middle" x="148.44" y="-290.3" font-family="Times,serif" font-size="14.00">window</text>
</g>
<!-- core&#45;&gt;window -->
<g id="edge1" class="edge">
<title>core&#45;&gt;window</title>
<path fill="none" stroke="black" d="M39.27,-173.42C49.86,-195.87 70.64,-235.21 97.09,-262 101.34,-266.3 106.26,-270.29 111.33,-273.91"/>
<polygon fill="black" stroke="black" points="109.64,-276.99 119.91,-279.61 113.52,-271.16 109.64,-276.99"/>
</g>
<!-- render -->
<g id="node3" class="node">
<title>render</title>
<ellipse fill="none" stroke="black" cx="148.44" cy="-202" rx="42.49" ry="18"/>
<text text-anchor="middle" x="148.44" y="-198.3" font-family="Times,serif" font-size="14.00">render</text>
</g>
<!-- core&#45;&gt;render -->
<g id="edge2" class="edge">
<title>core&#45;&gt;render</title>
<path fill="none" stroke="black" d="M56.41,-165.87C71.2,-171.74 90.31,-179.32 107.2,-186.03"/>
<polygon fill="black" stroke="black" points="106.26,-189.42 116.84,-189.86 108.84,-182.91 106.26,-189.42"/>
</g>
<!-- gfx -->
<g id="node4" class="node">
<title>gfx</title>
<ellipse fill="none" stroke="black" cx="270.88" cy="-188" rx="27" ry="18"/>
<text text-anchor="middle" x="270.88" y="-184.3" font-family="Times,serif" font-size="14.00">gfx</text>
</g>
<!-- core&#45;&gt;gfx -->
<g id="edge3" class="edge">
<title>core&#45;&gt;gfx</title>
<path fill="none" stroke="black" d="M60.81,-158.67C94.43,-161.88 151.23,-167.77 199.79,-175 211.22,-176.7 223.64,-178.89 234.81,-180.99"/>
<polygon fill="black" stroke="black" points="234.17,-184.43 244.65,-182.87 235.48,-177.56 234.17,-184.43"/>
</g>
<!-- input -->
<g id="node5" class="node">
<title>input</title>
<ellipse fill="none" stroke="black" cx="270.88" cy="-261" rx="35.19" ry="18"/>
<text text-anchor="middle" x="270.88" y="-257.3" font-family="Times,serif" font-size="14.00">input</text>
</g>
<!-- core&#45;&gt;input -->
<g id="edge4" class="edge">
<title>core&#45;&gt;input</title>
<path fill="none" stroke="black" d="M41.84,-172.84C53.17,-189.85 73.03,-215.5 97.09,-229 136.69,-251.21 188.64,-258.41 225.2,-260.55"/>
<polygon fill="black" stroke="black" points="225.39,-264.06 235.55,-261.04 225.73,-257.07 225.39,-264.06"/>
</g>
<!-- flow -->
<g id="node6" class="node">
<title>flow</title>
<ellipse fill="none" stroke="black" cx="270.88" cy="-68" rx="29.8" ry="18"/>
<text text-anchor="middle" x="270.88" y="-64.3" font-family="Times,serif" font-size="14.00">flow</text>
</g>
<!-- core&#45;&gt;flow -->
<g id="edge5" class="edge">
<title>core&#45;&gt;flow</title>
<path fill="none" stroke="black" d="M58.04,-147.84C91.41,-137.37 150.36,-118.26 199.79,-99 212.18,-94.17 225.59,-88.38 237.33,-83.12"/>
<polygon fill="black" stroke="black" points="239.07,-86.18 246.74,-78.86 236.18,-79.8 239.07,-86.18"/>
</g>
<!-- resource -->
<g id="node7" class="node">
<title>resource</title>
<ellipse fill="none" stroke="black" cx="148.44" cy="-72" rx="51.19" ry="18"/>
<text text-anchor="middle" x="148.44" y="-68.3" font-family="Times,serif" font-size="14.00">resource</text>
</g>
<!-- core&#45;&gt;resource -->
<g id="edge6" class="edge">
<title>core&#45;&gt;resource</title>
<path fill="none" stroke="black" d="M48.97,-141.36C61.96,-130.65 80.29,-115.96 97.09,-104 102.3,-100.3 107.92,-96.52 113.45,-92.92"/>
<polygon fill="black" stroke="black" points="115.47,-95.78 122,-87.44 111.69,-89.89 115.47,-95.78"/>
</g>
<!-- world -->
<g id="node8" class="node">
<title>world</title>
<ellipse fill="none" stroke="black" cx="148.44" cy="-18" rx="37.09" ry="18"/>
<text text-anchor="middle" x="148.44" y="-14.3" font-family="Times,serif" font-size="14.00">world</text>
</g>
<!-- core&#45;&gt;world -->
<g id="edge7" class="edge">
<title>core&#45;&gt;world</title>
<path fill="none" stroke="black" d="M38.42,-138.25C48.35,-114.51 68.68,-72.27 97.09,-45 101.16,-41.09 105.91,-37.59 110.83,-34.5"/>
<polygon fill="black" stroke="black" points="112.82,-37.4 119.77,-29.4 109.35,-31.32 112.82,-37.4"/>
</g>
<!-- window&#45;&gt;input -->
<g id="edge9" class="edge">
<title>window&#45;&gt;input</title>
<path fill="none" stroke="black" d="M186.56,-283.83C200.24,-280.08 215.8,-275.82 229.74,-272"/>
<polygon fill="black" stroke="black" points="230.83,-275.33 239.55,-269.31 228.98,-268.58 230.83,-275.33"/>
</g>
<!-- render&#45;&gt;gfx -->
<g id="edge8" class="edge">
<title>render&#45;&gt;gfx</title>
<path fill="none" stroke="black" d="M189.55,-197.34C203.83,-195.68 219.83,-193.82 233.76,-192.2"/>
<polygon fill="black" stroke="black" points="234.42,-195.65 243.95,-191.01 233.61,-188.69 234.42,-195.65"/>
</g>
<!-- world&#45;&gt;flow -->
<g id="edge10" class="edge">
<title>world&#45;&gt;flow</title>
<path fill="none" stroke="black" d="M177.07,-29.47C194.7,-36.79 217.65,-46.32 236.32,-54.07"/>
<polygon fill="black" stroke="black" points="235.06,-57.34 245.64,-57.94 237.75,-50.87 235.06,-57.34"/>
</g>
</g>
</svg>
