<?xml version="1.0" encoding="UTF-8" standalone="no"?>
<!DOCTYPE svg PUBLIC "-//W3C//DTD SVG 1.1//EN"
 "http://www.w3.org/Graphics/SVG/1.1/DTD/svg11.dtd">
<!-- Generated by graphviz version 2.43.0 (0)
 -->
<!-- Title: modules Pages: 1 -->
<svg width="314pt" height="282pt"
 viewBox="0.00 0.00 313.98 282.00" xmlns="http://www.w3.org/2000/svg" xmlns:xlink="http://www.w3.org/1999/xlink">
<g id="graph0" class="graph" transform="scale(1 1) rotate(0) translate(4 278)">
<title>modules</title>
<polygon fill="white" stroke="transparent" points="-4,4 -4,-278 309.98,-278 309.98,4 -4,4"/>
<!-- core -->
<g id="node1" class="node">
<title>core</title>
<ellipse fill="none" stroke="black" cx="30.55" cy="-141" rx="30.59" ry="18"/>
<text text-anchor="middle" x="30.55" y="-137.3" font-family="Times,serif" font-size="14.00">core</text>
</g>
<!-- window -->
<g id="node2" class="node">
<title>window</title>
<ellipse fill="none" stroke="black" cx="148.44" cy="-256" rx="46.29" ry="18"/>
<text text-anchor="middle" x="148.44" y="-252.3" font-family="Times,serif" font-size="14.00">window</text>
</g>
<!-- core&#45;&gt;window -->
<g id="edge1" class="edge">
<title>core&#45;&gt;window</title>
<path fill="none" stroke="black" d="M42.42,-157.96C54.38,-175.78 74.88,-203.95 97.09,-224 101.79,-228.24 107.1,-232.27 112.48,-235.96"/>
<polygon fill="black" stroke="black" points="110.61,-238.92 120.9,-241.45 114.43,-233.05 110.61,-238.92"/>
</g>
<!-- render -->
<g id="node3" class="node">
<title>render</title>
<ellipse fill="none" stroke="black" cx="148.44" cy="-164" rx="42.49" ry="18"/>
<text text-anchor="middle" x="148.44" y="-160.3" font-family="Times,serif" font-size="14.00">render</text>
</g>
<!-- core&#45;&gt;render -->
<g id="edge2" class="edge">
<title>core&#45;&gt;render</title>
<path fill="none" stroke="black" d="M59.6,-146.57C71.56,-148.94 85.86,-151.78 99.41,-154.47"/>
<polygon fill="black" stroke="black" points="99.08,-157.97 109.57,-156.48 100.45,-151.11 99.08,-157.97"/>
</g>
<!-- gfx -->
<g id="node4" class="node">
<title>gfx</title>
<ellipse fill="none" stroke="black" cx="270.88" cy="-164" rx="27" ry="18"/>
<text text-anchor="middle" x="270.88" y="-160.3" font-family="Times,serif" font-size="14.00">gfx</text>
</g>
<!-- core&#45;&gt;gfx -->
<g id="edge3" class="edge">
<title>core&#45;&gt;gfx</title>
<path fill="none" stroke="black" d="M60.41,-136.73C94.16,-132.55 151.53,-128.03 199.79,-137 213.24,-139.5 227.44,-144.49 239.52,-149.51"/>
<polygon fill="black" stroke="black" points="238.13,-152.72 248.7,-153.49 240.92,-146.29 238.13,-152.72"/>
</g>
<!-- input -->
<g id="node5" class="node">
<title>input</title>
<ellipse fill="none" stroke="black" cx="270.88" cy="-237" rx="35.19" ry="18"/>
<text text-anchor="middle" x="270.88" y="-233.3" font-family="Times,serif" font-size="14.00">input</text>
</g>
<!-- core&#45;&gt;input -->
<g id="edge4" class="edge">
<title>core&#45;&gt;input</title>
<path fill="none" stroke="black" d="M47.58,-156.13C60.16,-167.24 78.59,-181.93 97.09,-191 138.82,-211.46 190.84,-223.72 226.84,-230.38"/>
<polygon fill="black" stroke="black" points="226.55,-233.88 237.01,-232.19 227.78,-226.99 226.55,-233.88"/>
</g>
<!-- flow -->
<g id="node6" class="node">
<title>flow</title>
<ellipse fill="none" stroke="black" cx="148.44" cy="-72" rx="29.8" ry="18"/>
<text text-anchor="middle" x="148.44" y="-68.3" font-family="Times,serif" font-size="14.00">flow</text>
</g>
<!-- core&#45;&gt;flow -->
<g id="edge5" class="edge">
<title>core&#45;&gt;flow</title>
<path fill="none" stroke="black" d="M52.8,-128.34C70.94,-117.55 97.21,-101.9 117.48,-89.84"/>
<polygon fill="black" stroke="black" points="119.52,-92.7 126.32,-84.58 115.94,-86.68 119.52,-92.7"/>
</g>
<!-- resource -->
<g id="node7" class="node">
<title>resource</title>
<ellipse fill="none" stroke="black" cx="148.44" cy="-18" rx="51.19" ry="18"/>
<text text-anchor="middle" x="148.44" y="-14.3" font-family="Times,serif" font-size="14.00">resource</text>
</g>
<!-- core&#45;&gt;resource -->
<g id="edge6" class="edge">
<title>core&#45;&gt;resource</title>
<path fill="none" stroke="black" d="M40.13,-123.54C51.04,-102.74 71.57,-67.93 97.09,-45 100.21,-42.2 103.66,-39.6 107.26,-37.19"/>
<polygon fill="black" stroke="black" points="109.12,-40.15 115.82,-31.95 105.47,-34.18 109.12,-40.15"/>
</g>
<!-- window&#45;&gt;input -->
<g id="edge7" class="edge">
<title>window&#45;&gt;input</title>
<path fill="none" stroke="black" d="M191.56,-249.35C203.11,-247.53 215.63,-245.56 227.2,-243.73"/>
<polygon fill="black" stroke="black" points="227.75,-247.19 237.08,-242.17 226.66,-240.28 227.75,-247.19"/>
</g>
<!-- render&#45;&gt;gfx -->
<g id="edge8" class="edge">
<title>render&#45;&gt;gfx</title>
<path fill="none" stroke="black" d="M188.21,-157.65C203.26,-157.07 220.37,-157.12 235.03,-157.81"/>
<polygon fill="black" stroke="black" points="235.01,-161.32 245.2,-158.43 235.43,-154.33 235.01,-161.32"/>
</g>
<!-- gfx&#45;&gt;render -->
<g id="edge9" class="edge">
<title>gfx&#45;&gt;render</title>
<path fill="none" stroke="black" d="M245.2,-169.57C231.74,-170.59 214.6,-170.95 198.55,-170.65"/>
<polygon fill="black" stroke="black" points="198.31,-167.14 188.21,-170.35 198.11,-174.14 198.31,-167.14"/>
</g>
</g>
</svg>
