<?xml version="1.0" encoding="UTF-8" standalone="no"?>
<!DOCTYPE svg PUBLIC "-//W3C//DTD SVG 1.1//EN"
 "http://www.w3.org/Graphics/SVG/1.1/DTD/svg11.dtd">
<!-- Generated by graphviz version 2.43.0 (0)
 -->
<!-- Title: phases Pages: 1 -->
<svg width="547pt" height="44pt"
 viewBox="0.00 0.00 547.16 44.00" xmlns="http://www.w3.org/2000/svg" xmlns:xlink="http://www.w3.org/1999/xlink">
<g id="graph0" class="graph" transform="scale(1 1) rotate(0) translate(4 40)">
<title>phases</title>
<polygon fill="white" stroke="transparent" points="-4,4 -4,-40 543.16,-40 543.16,4 -4,4"/>
<!-- boot -->
<g id="node1" class="node">
<title>boot</title>
<ellipse fill="none" stroke="black" cx="31.2" cy="-18" rx="31.4" ry="18"/>
<text text-anchor="middle" x="31.2" y="-14.3" font-family="Times,serif" font-size="14.00">boot</text>
</g>
<!-- update -->
<g id="node2" class="node">
<title>update</title>
<ellipse fill="none" stroke="black" cx="141.29" cy="-18" rx="42.79" ry="18"/>
<text text-anchor="middle" x="141.29" y="-14.3" font-family="Times,serif" font-size="14.00">update</text>
</g>
<!-- boot&#45;&gt;update -->
<g id="edge1" class="edge">
<title>boot&#45;&gt;update</title>
<path fill="none" stroke="black" d="M62.59,-18C70.49,-18 79.23,-18 87.91,-18"/>
<polygon fill="black" stroke="black" points="88.02,-21.5 98.02,-18 88.02,-14.5 88.02,-21.5"/>
</g>
<!-- draw -->
<g id="node3" class="node">
<title>draw</title>
<ellipse fill="none" stroke="black" cx="254.63" cy="-18" rx="34.39" ry="18"/>
<text text-anchor="middle" x="254.63" y="-14.3" font-family="Times,serif" font-size="14.00">draw</text>
</g>
<!-- update&#45;&gt;draw -->
<g id="edge2" class="edge">
<title>update&#45;&gt;draw</title>
<path fill="none" stroke="black" d="M184.38,-18C192.79,-18 201.64,-18 210.09,-18"/>
<polygon fill="black" stroke="black" points="210.15,-21.5 220.15,-18 210.15,-14.5 210.15,-21.5"/>
</g>
<!-- flush -->
<g id="node4" class="node">
<title>flush</title>
<ellipse fill="none" stroke="black" cx="358.23" cy="-18" rx="33.29" ry="18"/>
<text text-anchor="middle" x="358.23" y="-14.3" font-family="Times,serif" font-size="14.00">flush</text>
</g>
<!-- draw&#45;&gt;flush -->
<g id="edge3" class="edge">
<title>draw&#45;&gt;flush</title>
<path fill="none" stroke="black" d="M289.18,-18C297.32,-18 306.12,-18 314.61,-18"/>
<polygon fill="black" stroke="black" points="314.75,-21.5 324.75,-18 314.75,-14.5 314.75,-21.5"/>
</g>
<!-- shutdown -->
<g id="node5" class="node">
<title>shutdown</title>
<ellipse fill="none" stroke="black" cx="483.27" cy="-18" rx="55.79" ry="18"/>
<text text-anchor="middle" x="483.27" y="-14.3" font-family="Times,serif" font-size="14.00">shutdown</text>
</g>
<!-- flush&#45;&gt;shutdown -->
<g id="edge4" class="edge">
<title>flush&#45;&gt;shutdown</title>
<path fill="none" stroke="black" d="M391.56,-18C399.52,-18 408.34,-18 417.25,-18"/>
<polygon fill="black" stroke="black" points="417.32,-21.5 427.32,-18 417.32,-14.5 417.32,-21.5"/>
</g>
</g>
</svg>
